# xmcd CD database file
#
# Track frame offsets:
#	150
#	22995
#	41869
#	59674
#	78918
#	100863
#	117777
#	135420
#	158179
#	174675
#	197325
#	220402
#	241341
#	259383
#	277042
#	299500
#	326272
#
# Disc length: 4589 seconds
#
# Revision: 2
# Processed by: cddbd v1.5.1PL0 Copyright (c) Steve Scherf et al.
# Submitted via: CDex 1.51
#
DISCID=f911eb11
DTITLE=Portishead - Dummy_Portishead
DYEAR=1900
DGENRE=New Age
TTITLE0=Portishead - Mysterons
TTITLE1=Portishead - Sour Times
TTITLE2=Portishead - Strangers
TTITLE3=Portishead - It Could Be Sweet
TTITLE4=Portishead - Wandering Star
TTITLE5=Portishead - It's a Fire
TTITLE6=Portishead - Numb
TTITLE7=Portishead - Roads
TTITLE8=Portishead - Pedestal
TTITLE9=Portishead - Biscuit
TTITLE10=Portishead - Glory Box
TTITLE11=Portishead - Cowboys
TTITLE12=Portishead - All Mine
TTITLE13=Portishead - Over
TTITLE14=Portishead - Only You
TTITLE15=Portishead - Elysium
TTITLE16=Portishead - Western Eyes
EXTD=
EXTT0=
EXTT1=
EXTT2=
EXTT3=
EXTT4=
EXTT5=
EXTT6=
EXTT7=
EXTT8=
EXTT9=
EXTT10=
EXTT11=
EXTT12=
EXTT13=
EXTT14=
EXTT15=
EXTT16=
PLAYORDER=
